# xmcd
#
# Track frame offsets: 
#        150
#        14356
#        41189
#
# Disc length: 736 seconds
#
# Revision: 0
# Processed by: cddbd v1.5.2PL0 Copyright (c) Steve Scherf et al.
# Submitted via: ExactAudioCopy v0.95b3
#
DISCID=1f02de03
DTITLE=Unheilig - Glueck Auf Das Leben [0602547370679]
DYEAR=2015
DGENRE=Electronic
TTITLE0=Glueck Auf Das Leben
TTITLE1=Die Weisheiten Des Lebens
TTITLE2=Glueck Auf Das Ruhrgebiet
EXTD=
EXTT0=
EXTT1=
EXTT2=
PLAYORDER=
